<svg width="922" height="230" viewBox="0 0 922 230" fill="none" xmlns="http://www.w3.org/2000/svg">
<path d="M170.817 50.9401H195.811V130.498L232.615 89.3918H263.925L221.079 137.182L269.144 189H238.108L195.811 143.133V189H170.817V50.9401ZM289.194 48.3766C293.588 48.3766 297.342 49.9635 300.454 53.1373C303.628 56.3111 305.215 60.1563 305.215 64.6728C305.215 69.1283 303.659 72.943 300.546 76.1168C297.433 79.2295 293.71 80.7859 289.377 80.7859C284.921 80.7859 281.106 79.199 277.933 76.0252C274.82 72.7904 273.264 68.8842 273.264 64.3066C273.264 59.9121 274.82 56.1585 277.933 53.0457C281.045 49.933 284.799 48.3766 289.194 48.3766ZM276.651 89.3918H301.736V189H276.651V89.3918ZM318.582 89.3918H340.005V101.934C342.324 96.9906 345.406 93.2369 349.251 90.6735C353.097 88.11 357.308 86.8283 361.886 86.8283C365.12 86.8283 368.508 87.6828 372.048 89.3918L364.266 110.906C361.336 109.442 358.925 108.709 357.033 108.709C353.188 108.709 349.923 111.09 347.237 115.85C344.613 120.611 343.301 129.949 343.301 143.865L343.392 148.717V189H318.582V89.3918ZM458.106 89.3918H483.008V189H458.106V178.472C453.224 183.11 448.31 186.467 443.367 188.542C438.484 190.556 433.174 191.563 427.437 191.563C414.558 191.563 403.42 186.589 394.02 176.641C384.621 166.631 379.921 154.21 379.921 139.379C379.921 123.998 384.468 111.395 393.562 101.568C402.657 91.7416 413.704 86.8283 426.704 86.8283C432.686 86.8283 438.301 87.9575 443.55 90.2157C448.799 92.474 453.651 95.8614 458.106 100.378V89.3918ZM431.831 109.899C424.08 109.899 417.641 112.646 412.514 118.139C407.387 123.571 404.823 130.56 404.823 139.104C404.823 147.71 407.417 154.79 412.605 160.344C417.854 165.898 424.293 168.676 431.923 168.676C439.796 168.676 446.327 165.959 451.515 160.527C456.703 155.034 459.297 147.863 459.297 139.013C459.297 130.346 456.703 123.327 451.515 117.956C446.327 112.585 439.766 109.899 431.831 109.899ZM505.49 54.3275H535.885C555.477 54.3275 570.034 56.7689 579.555 61.6516C589.077 66.4733 596.92 74.3468 603.084 85.2719C609.248 96.1971 612.331 108.953 612.331 123.541C612.331 133.916 610.591 143.468 607.112 152.196C603.694 160.863 598.934 168.065 592.83 173.802C586.788 179.54 580.227 183.507 573.147 185.704C566.067 187.901 553.799 189 536.343 189H505.49V54.3275ZM531.033 79.0464V163.915H542.935C554.653 163.915 563.137 162.572 568.386 159.887C573.696 157.201 578.029 152.684 581.386 146.337C584.743 139.989 586.422 132.177 586.422 122.9C586.422 108.618 582.424 97.5399 574.428 89.6664C567.226 82.5864 555.66 79.0464 539.73 79.0464H531.033ZM673.22 86.8283C682.619 86.8283 691.439 89.1781 699.678 93.8778C707.979 98.5775 714.449 104.956 719.087 113.012C723.726 121.069 726.045 129.766 726.045 139.104C726.045 148.504 723.695 157.293 718.996 165.471C714.357 173.65 708.01 180.058 699.953 184.697C691.896 189.275 683.016 191.563 673.311 191.563C659.029 191.563 646.822 186.498 636.691 176.366C626.62 166.173 621.585 153.814 621.585 139.287C621.585 123.724 627.291 110.754 638.705 100.378C648.715 91.3449 660.22 86.8283 673.22 86.8283ZM673.586 110.357C665.835 110.357 659.365 113.073 654.177 118.505C649.05 123.876 646.487 130.773 646.487 139.196C646.487 147.863 649.02 154.882 654.086 160.253C659.212 165.624 665.682 168.309 673.495 168.309C681.307 168.309 687.807 165.593 692.995 160.161C698.183 154.729 700.777 147.741 700.777 139.196C700.777 130.651 698.214 123.724 693.087 118.414C688.021 113.043 681.521 110.357 673.586 110.357ZM836.555 109.533L815.773 120.977C811.867 116.888 807.991 114.05 804.146 112.463C800.362 110.876 795.906 110.082 790.78 110.082C781.441 110.082 773.873 112.89 768.075 118.505C762.338 124.059 759.469 131.2 759.469 139.928C759.469 148.412 762.246 155.339 767.8 160.711C773.354 166.082 780.648 168.767 789.681 168.767C800.85 168.767 809.548 164.952 815.773 157.323L835.457 170.781C824.776 184.636 809.7 191.563 790.23 191.563C772.713 191.563 758.981 186.376 749.032 176C739.144 165.624 734.201 153.478 734.201 139.562C734.201 129.919 736.612 121.038 741.433 112.921C746.255 104.803 752.969 98.4249 761.575 93.7862C770.242 89.1476 779.915 86.8283 790.596 86.8283C800.484 86.8283 809.365 88.8119 817.238 92.7792C825.111 96.6854 831.551 102.27 836.555 109.533ZM912.642 103.308L897.17 118.78C890.883 112.554 885.177 109.442 880.05 109.442C877.242 109.442 875.045 110.052 873.458 111.273C871.871 112.432 871.078 113.897 871.078 115.667C871.078 117.01 871.566 118.261 872.543 119.421C873.58 120.519 876.083 122.045 880.05 123.998L889.205 128.576C898.848 133.337 905.471 138.189 909.072 143.133C912.673 148.076 914.473 153.875 914.473 160.527C914.473 169.377 911.208 176.763 904.677 182.683C898.208 188.603 889.51 191.563 878.585 191.563C864.059 191.563 852.462 185.887 843.795 174.535L859.176 157.781C862.106 161.199 865.524 163.976 869.43 166.112C873.397 168.187 876.907 169.225 879.958 169.225C883.254 169.225 885.909 168.431 887.923 166.844C889.937 165.258 890.944 163.427 890.944 161.351C890.944 157.506 887.313 153.753 880.05 150.091L871.627 145.879C855.514 137.762 847.457 127.599 847.457 115.392C847.457 107.519 850.479 100.805 856.521 95.2511C862.624 89.6359 870.406 86.8283 879.867 86.8283C886.336 86.8283 892.409 88.2626 898.086 91.1312C903.823 93.9388 908.675 97.9976 912.642 103.308Z" fill="currentColor"/>
<path fill-rule="evenodd" clip-rule="evenodd" d="M63.826 45L0.97168 107.737V189H19.2594L73.9859 134.376L128.712 189H147V107.737L84.1457 45H63.826ZM21.2534 158.354V116.149L63.845 73.637V115.842L21.2534 158.354ZM84.1267 115.842L126.718 158.354V116.149L84.1267 73.637V115.842Z" fill="currentColor"/>
</svg>
